# MagicaVoxel @ Ephtracy

# material
mtllib room.mtl
usemtl palette

# normals
vn -1 0 0
vn 1 0 0
vn 0 0 1
vn 0 0 -1
vn 0 -1 0
vn 0 1 0

# texcoords
vt 0.00195312 0.5
vt 0.958984 0.5

# verts
v -63 0 63
v -63 0 -33
v -63 53 63
v -63 53 -33
v -9 0 63
v -9 0 61
v -9 51 63
v -9 51 61
v 53 0 -31
v 53 0 -33
v 53 39 -31
v 53 39 -33
v 61 0 61
v 61 0 -31
v 61 51 61
v 61 51 -31
v -61 0 63
v -61 0 -31
v -61 51 63
v -61 51 -31
v 28 0 -31
v 28 0 -33
v 28 39 -31
v 28 39 -33
v 63 0 63
v 63 0 -33
v 63 53 63
v 63 53 -33
v -63 0 63
v -63 53 63
v -61 0 63
v -61 51 63
v -9 0 63
v -9 51 63
v 63 0 63
v 63 53 63
v -61 0 -31
v -61 51 -31
v 28 0 -31
v 28 39 -31
v 53 0 -31
v 53 39 -31
v 61 0 -31
v 61 51 -31
v -9 0 61
v -9 51 61
v 28 0 61
v 28 39 61
v 53 0 61
v 53 39 61
v 61 0 61
v 61 51 61
v -63 0 -33
v -63 53 -33
v 28 0 -33
v 28 39 -33
v 53 0 -33
v 53 39 -33
v 63 0 -33
v 63 53 -33
v -63 0 63
v -61 0 63
v -9 0 63
v 63 0 63
v 28 0 62
v 53 0 62
v -9 0 61
v 28 0 61
v 53 0 61
v 61 0 61
v -61 0 -31
v 28 0 -31
v 53 0 -31
v 61 0 -31
v -63 0 -33
v 28 0 -33
v 53 0 -33
v 63 0 -33
v 28 39 -31
v 53 39 -31
v 28 39 -33
v 53 39 -33
v -61 51 63
v -9 51 63
v -9 51 61
v 61 51 61
v -61 51 -31
v 61 51 -31
v -63 53 63
v 63 53 63
v -63 53 -33
v 63 53 -33

# faces
f 3/1/1 2/1/1 1/1/1
f 4/1/1 2/1/1 3/1/1
f 7/1/1 6/1/1 5/1/1
f 8/1/1 6/1/1 7/1/1
f 11/1/1 10/1/1 9/1/1
f 12/1/1 10/1/1 11/1/1
f 15/1/1 14/1/1 13/1/1
f 16/1/1 14/1/1 15/1/1
f 17/1/2 18/1/2 19/1/2
f 19/1/2 18/1/2 20/1/2
f 21/1/2 22/1/2 23/1/2
f 23/1/2 22/1/2 24/1/2
f 25/1/2 26/1/2 27/1/2
f 27/1/2 26/1/2 28/1/2
f 31/1/3 30/1/3 29/1/3
f 32/1/3 30/1/3 31/1/3
f 34/1/3 30/1/3 32/1/3
f 35/1/3 34/1/3 33/1/3
f 36/1/3 30/1/3 34/1/3
f 36/1/3 34/1/3 35/1/3
f 39/1/3 38/1/3 37/1/3
f 40/1/3 38/1/3 39/1/3
f 42/1/3 38/1/3 40/1/3
f 43/1/3 42/1/3 41/1/3
f 44/1/3 38/1/3 42/1/3
f 44/1/3 42/1/3 43/1/3
f 45/1/4 46/1/4 47/1/4
f 47/1/4 46/1/4 48/1/4
f 47/2/4 48/2/4 49/2/4
f 48/1/4 46/1/4 50/1/4
f 49/2/4 48/2/4 50/2/4
f 49/1/4 50/1/4 51/1/4
f 50/1/4 46/1/4 52/1/4
f 51/1/4 50/1/4 52/1/4
f 53/1/4 54/1/4 55/1/4
f 55/1/4 54/1/4 56/1/4
f 56/1/4 54/1/4 58/1/4
f 57/1/4 58/1/4 59/1/4
f 58/1/4 54/1/4 60/1/4
f 59/1/4 58/1/4 60/1/4
f 65/1/5 64/1/5 63/1/5
f 66/1/5 64/1/5 65/1/5
f 67/1/5 65/1/5 63/1/5
f 68/2/5 66/2/5 65/2/5
f 68/1/5 65/1/5 67/1/5
f 69/1/5 64/1/5 66/1/5
f 69/2/5 66/2/5 68/2/5
f 70/1/5 64/1/5 69/1/5
f 71/1/5 62/1/5 61/1/5
f 74/1/5 64/1/5 70/1/5
f 75/1/5 72/1/5 71/1/5
f 75/1/5 71/1/5 61/1/5
f 76/1/5 72/1/5 75/1/5
f 77/1/5 74/1/5 73/1/5
f 78/1/5 64/1/5 74/1/5
f 78/1/5 74/1/5 77/1/5
f 81/1/5 80/1/5 79/1/5
f 82/1/5 80/1/5 81/1/5
f 85/1/5 84/1/5 83/1/5
f 87/1/5 85/1/5 83/1/5
f 87/1/5 86/1/5 85/1/5
f 88/1/5 86/1/5 87/1/5
f 89/1/6 90/1/6 91/1/6
f 91/1/6 90/1/6 92/1/6
